<?xml version="1.0" encoding="UTF-8"?>
<svg version="1.1" viewBox="0 0 288 288" xmlns="http://www.w3.org/2000/svg" xmlns:xlink="http://www.w3.org/1999/xlink">
<g>
<svg class="illustration styles_illustrationTablet__1DWOa" width="288" height="288" data-name="Layer 2" viewBox="0 0 400 300" xmlns="http://www.w3.org/2000/svg" xmlns:xlink="http://www.w3.org/1999/xlink">
<defs>
<linearGradient id="a" x1="169.22" x2="199.28" y1="251.07" y2="227.33" gradientUnits="userSpaceOnUse">
<stop class="stopColor000000 svgShape" stop-opacity="0" offset="0"/>
<stop class="stopColor1a1a1a svgShape" stop-color="#1a1a1a" offset=".99"/>
</linearGradient>
<linearGradient id="b" x1="61.54" x2="75.55" y1="185.97" y2="166.05" xlink:href="#a"/>
</defs>
<path class="colore5e1e1 svgShape" d="M21.33,166.12,177.55,77.21a25.05,25.05,0,0,1,25,.13l161,93.75a13.92,13.92,0,0,1-.07,24.11L213.23,281.47a33.57,33.57,0,0,1-33.46,0L21.28,190.29A13.92,13.92,0,0,1,21.33,166.12Z" fill="#e5e1e1"/>
<path class="color003c4f svgShape" d="M210.9,73.93l23.85-8.31s.52,8.64-1.71,14.59l-20.8,12.06" fill="#003c4f"/>
<path d="m182.59 260.2 40-23.78-28-19.35-46.49 23.17c11.06 6.84 23.77 12.65 34.49 19.96z" fill="url(#a)" opacity=".32"/>
<line class="colorStroke61587d svgStroke" x1="81.39" x2="81.39" y1="115.26" y2="115.12" fill="none" stroke="#61587d"/>
<line class="colorStroke61587d svgStroke" x1="77.68" x2="77.68" y1="115.26" y2="115.12" fill="none" stroke="#61587d"/>
<line class="colorStroke61587d svgStroke" x1="70.27" x2="70.27" y1="115.12" y2="115.26" fill="none" stroke="#61587d"/>
<line class="colorStroke61587d svgStroke" x1="73.98" x2="73.98" y1="115.26" y2="115.12" fill="none" stroke="#61587d"/>
<line class="colorStroke61587d svgStroke" x1="66.56" x2="66.56" y1="115.12" y2="115.26" fill="none" stroke="#61587d"/>
<path class="color363942 svgShape" d="M209.42,209.79c-.17.76-2.1,9.45,0,12.28,2.25,3,5.87,4.68,8.75,7.12,1.5,1.27,7.15,8.88,2.79,9.7-3,.57-12.09-2.27-17.76-6.42s-9.61-5-9.83-7.14,3.48-19.79,3.48-19.79" fill="#363942"/>
<path class="color363942 svgShape" d="M208.18 216.78c.28-3.91.48-8.27.5-10.54A34 34 0 00208.18 216.78zM190.37 221.16s.51 8.16 1.7 10.37 6.08 11.35 3.53 14.41-13.73-3.36-15.26-9.14-3.06-6.29-3.57-8.67 1.87-14.78 1.87-14.78" fill="#363942"/>
<path class="colorff7f5c svgShape" d="M217.5,115.29s-5,97.46-7.92,99.59-10.84,2.92-16-.91l5.76-41.57L192,225.27s-14.5,2.35-19-3.15c-1.27-1.56,11.4-105.91,11.4-105.91" fill="#7a0c11"/>
<path class="color68e1fd svgShape" d="M217,108.92q-.53-9.13-1.15-18.26c-.63-9.14.47-28.63-8.09-34.4-4.66-3.15-12.28-1.61-16.79.77-10.28,5.42-19.17,27.82-20.21,36.74a9,9,0,0,0,.17,2.82c4.51,1.72,9.68,1.64,12.15,6.61,2,3.93,1.49,8.59,1.37,13,.66.65,1.06,1,1.06,1,19.71,9.75,32,0,32,0C218.19,116.66,217.06,109.81,217,108.92Z" fill="#815bde"/>
<path class="colorfcbb5b svgShape" d="m194.23 47.81-0.69 9.19s6.24 6.38 12.4 5.5l-3-12.81" fill="#fcbb5b"/>
<path class="colordb9231 svgShape" d="m194.23 47.81-0.22 5s6.5 4.79 10.14 1.09-9.92-6.09-9.92-6.09z" fill="#db9231"/>
<path class="color68e1fd svgShape" d="m170.76 93.77s-1.24 10.54 8.25 11.64 33.23-13.13 33.23-13.13-1.22-7-3.78-9.49-22 2.49-22 2.49" fill="#815bde"/>
<path class="color363942 svgShape" d="m201.41 128.41a827.57 827.57 0 0 1-9.41 87.75c-0.15 0.91 1.25 1.31 1.4 0.39a831.24 831.24 0 0 0 9.44-88.14c0.07-0.93-1.38-0.93-1.43 0z" fill="#363942"/>
<polygon class="color003c4f svgShape" points="209.89 94.65 183.08 103.2 184.57 112.05" fill="#003c4f"/>
<polygon class="colorff7f5c svgShape" points="218.83 90.98 226.52 65.32 248.14 53.74 239.58 81.55" fill="#7a0c11"/>
<path class="colorfff svgShape" d="M193.54,54.39s3.25,3,5.37,3.24l3.29,1.79,2.72,2.83V58.32s-.81-3.54-.68-3.51,2.95,4.55,2.95,4.55l2.72,4.53-4-.39-1.71,2.89S194.4,62,191,57Z" fill="#fff"/>
<path class="color363942 svgShape" d="M191,44.43c0-.25-2.37-3.93-1.82-6a3.75,3.75,0,0,1,2.22-2.59s-.79-5,3.62-5.37,14.13-.45,15.4,2.16,0,7-3.45,7.65-10.8-.5-10.8-.5.76,6.1-5.17,4.63" fill="#363942"/>
<path class="colorfbc76f svgShape" d="m207.25 38.2s3.64 16.13-2.72 17.58-11-8.23-11-8.23-4.16-3.35-1.76-4.34 2.85 0.36 2.85 0.36-2.78-5.28-0.27-5.47 9.96 3.43 12.9 0.1z" fill="#fbc76f"/>
<circle class="colorStroke42210b svgStroke" transform="rotate(-76.84 207.43 43.339)" cx="207.43" cy="43.34" r="2.7" fill="none" stroke="#42210b" stroke-miterlimit="10" stroke-width=".25"/>
<circle class="colorStroke42210b svgStroke" transform="rotate(-76.84 199.8 43.411)" cx="199.8" cy="43.41" r="3" fill="none" stroke="#42210b" stroke-miterlimit="10" stroke-width=".25"/>
<line class="colorStroke42210b svgStroke" x1="194.31" x2="196.75" y1="43.05" y2="43.3" fill="none" stroke="#42210b" stroke-miterlimit="10" stroke-width=".25"/>
<line class="colorStroke42210b svgStroke" x1="202.8" x2="204.73" y1="43.46" y2="43.37" fill="none" stroke="#42210b" stroke-miterlimit="10" stroke-width=".25"/>
<path class="colorStroke42210b svgStroke" d="M203.71,44.72s2.19,2.43-.17,3" fill="none" stroke="#42210b" stroke-miterlimit="10" stroke-width=".25"/>
<polyline points="105.13 164.89 57.17 192.47 37.47 179.3 80.69 155.68" fill="url(#b)" opacity=".32"/>
<polyline class="colorf8997c svgShape" points="77.04 142.79 77.04 160.91 106.35 160.91 106.35 142.79" fill="#f8997c"/>
<ellipse class="colordd654a svgShape" cx="91.7" cy="142.79" rx="14.66" ry="7.21" fill="#dd654a"/>
<ellipse class="colorf8997c svgShape" cx="91.7" cy="161.61" rx="14.66" ry="7.21" fill="#f8997c"/>
<path class="color297600 svgShape" d="m108.11 100.66c-3.11-1.26-7.38-5.47-11.11-5.34-1.42 3.49-1.84 7.58-2.27 11.12a100.92 100.92 0 0 0-0.43 18.56q0.13 2.07 0.34 4.12a3.29 3.29 0 0 0 0.33 1.16q0 7.17 0 14.34a0.46 0.46 0 0 0 0.91 0q0-6.9 0-13.8a20.34 20.34 0 0 0 4.2-1.94 14.28 14.28 0 0 0 5.91-7.42c2.37-6.59 0.87-13.94 3.12-20.46-0.35-0.09-0.68-0.21-1-0.34z" fill="#297600"/>
<path class="color5fad00 svgShape" d="M101.77,89.87a11.49,11.49,0,0,0-4.19,4.28,7.18,7.18,0,0,0-.66,1.27l-.13.28h0a19.16,19.16,0,0,0-.7,2.27,2.83,2.83,0,0,1,1.56-1.23,3.88,3.88,0,0,1,2.45-.23,10.25,10.25,0,0,1,2.24,1.2c1,.63,2.05,1.34,3.09,2,4.86,3.09,11.32,3.4,15.07-1.09,0-.18.09-.36.13-.54C121.18,95,112.51,83.63,101.77,89.87Z" fill="#5fad00"/>
<path class="color297600 svgShape" d="M118.35 100.53c.2-.14.4-.27.61-.4a.42.42 0 00-.12-.35c-2.94-3-6.09-6-10.1-7.46a17.3 17.3 0 00-9-.89c-.33.38-.62.78-.92 1.18 3.27-1.09 7.4-.41 10.37.86 3.55 1.51 6.37 4.22 9 6.95A.44.44 0 00118.35 100.53zM69.14 107.09a12.24 12.24 0 00-6.55 11.74c.35 8.65 14.6.2 18.38-7.09s4.38 3.11 4.38 3.11" fill="#297600"/>
<path class="color5fad00 svgShape" d="M82,104.07a25.8,25.8,0,0,0-7.91,1.1,19.19,19.19,0,0,0-4.92,1.92A15.87,15.87,0,0,0,72,108.61c1.79.72,3.66,1.62,4.6,3.3a6.57,6.57,0,0,1,.55,1.3c.87,2.84.12,6.3,1.29,9.16S82,127.75,85.35,128c4,.24,5.85-3.61,6.65-6.95s1.88-7.89.61-11.32C91.14,105.7,85.77,104.26,82,104.07Z" fill="#5fad00"/>
<path class="color297600 svgShape" d="M87.26,117.57c-1.68-5.46-5.26-10.62-10.49-13h-.2l-.25.08-.95.24c6.09,2.26,9.92,8.27,11.48,14.4,2,7.85,1.32,16.35,1.34,24.37a.42.42,0,0,0,.84,0C89,135.07,89.82,125.88,87.26,117.57Z" fill="#297600"/>
<path class="color68e1fd svgShape" d="m334.38 59.08c4.09 11.55-0.21 23.93-9.61 27.66s-20.35-2.61-24.44-14.16 0.21-23.93 9.61-27.66 20.35 2.61 24.44 14.16z" fill="#815bde"/>
<path class="color68e1fd svgShape" d="m331.51 60.21c4.09 11.55-0.21 23.93-9.61 27.66s-20.35-2.61-24.44-14.16 0.21-23.93 9.61-27.66 20.35 2.62 24.44 14.16z" fill="#815bde"/>
<path class="colorfff svgShape" d="m328.57 61.38c3.39 9.56-0.17 19.8-8 22.89s-16.84-2.16-20.22-11.72 0.17-19.8 8-22.89 16.84 2.16 20.22 11.72z" fill="#fff"/>
<path class="color007f68 svgShape" d="M314,66.49l-5.27,7.6c-.44.63.48,1.38.92.75l5.27-7.6C315.39,66.61,314.47,65.86,314,66.49Z" fill="#007f68"/>
<path class="color007f68 svgShape" d="M313.81,54.6V66.31a.67.67,0,0,0,1.35,0V54.6A.67.67,0,0,0,313.81,54.6Z" fill="#007f68"/>
<path class="colorfbc76f svgShape" d="M246.49,63.77l.86-.76a1.5,1.5,0,0,0-2.12-2.12l-3.32,2.95a1.52,1.52,0,0,0,0,2.12,1.43,1.43,0,0,0,.88.41l-1.19,1.24a1.43,1.43,0,0,0-.07,2c-.3.31-.61.61-.89.94a1.54,1.54,0,0,0,0,2.12l0,0c-.25.25-.49.51-.71.78a1.54,1.54,0,0,0,0,2.12,1.51,1.51,0,0,0,2.12,0,12.55,12.55,0,0,1,3-2.62,1.54,1.54,0,0,0,0-2.6c.46-.43.92-.86,1.41-1.27a1.51,1.51,0,0,0,0-2.12h0l.68-.7A1.52,1.52,0,0,0,246.49,63.77Z" fill="#fbc76f"/>
<polygon class="color973f00 svgShape" points="219.12 80.52 212.6 65.64 216.5 63.27 222.25 78.53" fill="#973f00"/>
<path class="colorff7f5c svgShape" d="M212.6,65.64l-.68-1.44a1.45,1.45,0,0,1,.63-1.9l1.58-.84a1.45,1.45,0,0,1,2.07.84l.31,1" fill="#7a0c11"/>
<path class="colorfbc76f svgShape" d="M225.6,78.23c-1.85,0-5.29.34-5.29.34a4.86,4.86,0,0,0-2.42-1.5c-1.29-.19-4.54,2.8-5.57,4-.44.51-2.68,1.29-5.09,2a4.13,4.13,0,0,1,.29,1.12c.27,2.44.53,4.87.93,7.29,2.84-1,6.17-2.11,6.45-2.32.49-.36,9.17-2.29,10.14-3.86S228.28,78.3,225.6,78.23Z" fill="#fbc76f"/>
<path class="color003c4f svgShape" d="M207.3,80.74a.73.73,0,0,0-.89-.51L184,86.92a.73.73,0,0,0,.39,1.4L206,81.86q1.43,6.55,2.44,13.18c.14.92,1.54.53,1.4-.39Q208.83,87.65,207.3,80.74Z" fill="#003c4f"/>
</svg>
</g>
</svg>
