<?xml version="1.0" encoding="UTF-8"?>
<svg version="1.1" viewBox="0 0 288 288" xmlns="http://www.w3.org/2000/svg">
<g>
<svg width="288" height="288" enable-background="new 0 0 313.035 214.08" viewBox="0 0 313.035 214.08" xmlns="http://www.w3.org/2000/svg">
<path class="colorcce9ff svgShape" d="m214.61 55.14c1.54 2.85-0.609 6.27-2.87 8.59-2.26 2.32-4.96 4.96-4.58 8.18 0.351 2.97 3.24 5.02 4.141 7.87 0.96 3.05-0.54 6.35-2.55 8.84-0.891 1.11-1.881 2.13-2.86 3.17-0.48-0.96-0.74-1.99-0.62-3.06 0.24-2.25 2.08-4.2 1.89-6.46-0.189-2.44-2.59-4-4.609-5.38-2.021-1.38-4.13-3.6-3.41-5.94 0.25-0.79 0.8-1.46 1.08-2.23 1.02-2.77-1.5-5.48-3.76-7.36 0 0-1.24-1.42-3.07-0.86-1.91 0.19-2.51 1.97-2.51 1.97-1.36 2.62-2.63 6.09-0.63 8.25 0.569 0.6 1.329 1.01 1.859 1.64 1.58 1.88 0.49 4.74-0.84 6.8-1.33 2.05-2.94 4.42-2.18 6.75 0.71 2.15 3.149 3.24 4.239 5.22 1.171 2.11 0.551 4.79-0.569 6.94-1.11 2.14-2.681 4.06-3.51 6.33-0.82 2.28-0.66 5.18 1.239 6.68 1.32 1.04 3.25 1.24 4.29 2.55 0.11 0.14 0.221 0.29 0.311 0.43h-24.11c-0.55-2.05-1.14-3.8-1.71-5.24 0.5-0.24 0.92-0.5 1.24-0.79 0 0-4.59-6.87-5.181-7.85-0.47-0.79-0.25-4.4 0.131-6.5 1.79-4.52 3.609-9.52 4.189-11.43 0.41-1.34 0.88-3.59 1.29-5.85 0.55-2.97 1.01-5.96 1.16-6.92 0.03-0.18 0.05-0.29 0.05-0.31-0.29-0.86-0.979-1.69-2.27-1.69-0.29 0-0.62 0.04-0.98 0.15-2.41-1.07-6.22-1.59-7.83-1.93-0.109-0.03-0.22-0.06-0.33-0.08-0.08-0.03-0.16-0.05-0.239-0.06-0.011-0.01-0.02-0.01-0.03-0.01 0 0-1.7-3.19-0.49-7.56 0 0 0.04-0.07 0.12-0.2 0.39 0.38 0.85 0.67 1.38 0.83 2.18 0.67 4.63-1.04 5.48-3.82 0.85-2.77-0.23-5.56-2.421-6.22-0.579-0.18-1.18-0.19-1.76-0.06-0.029-2.75-1.05-5.46-4.21-7.19-8.5-4.66-14.35 4.04-12.79 7.28-0.22 2.31 0.07 5.28 1.26 9.07 1.32 4.19 3.23 5.77 5.23 5.68 0.05 0.55 0.11 1.16 0.16 1.78 0.01 0.19 0.03 0.39 0.04 0.58-0.44 0.19-0.7 0.36-0.79 0.44-0.03 0.01-0.04 0.02-0.04 0.02-0.45 0.17-0.93 0.35-1.38 0.52-0.351 0.13-0.69 0.24-0.99 0.34-0.2 0.07-0.39 0.13-0.55 0.17-0.13 0.04-0.25 0.07-0.351 0.09-0.109 0.02-0.239 0.09-0.399 0.2-0.66-0.12-1.3-0.41-2.08-0.58 0.11 0.32 0.25 0.64 0.399 0.93-0.689 0.18-1.479 0.55-2.34 1.19 0 0-2.89 2.94-5.189 14-1.12 5.38-3.24 13.12-3.79 14.07-0.2 0.35-0.84 0.89-1.74 1.64l-5.86-22.8h-42.18l-1.25 1.17 7.021 27.3h13.439v7.7h-5.22c-0.54 0-1.021 0.22-1.37 0.57-0.35 0.35-0.56 0.83-0.56 1.37h-34.511v4.33h2.851v36.57h-2.851v4.34h2.851v36.569h-1.101c-8.38-1.75-16.04-4.399-22.45-8.399-13.359-8.34-6.409-31.15-15.659-43.39-7.771-10.291-18.341-17.05-23.53-29.941-8.84-21.91 3.76-50.44 25.82-58.22 13.779-4.86 28.38-7.09 42.01-12.43 14.07-5.52 19.5-13.78 30.229-23.57 19.41-17.68 52.441-14.29 76.23-3.96 3.83 1.66 7.42 3.5 10.67 5.47 9.92 5.97 18.15 14.33 27.5 20.94-2.36 2.99-4.65 6.97-2.68 10.16 0.571 0.931 1.45 1.651 1.981 2.611z" fill="#c2a7f8"/>
<rect class="colorcce9ff svgShape" x="199.16" y="166.6" width="6.877" height="30.949" fill="#c2a7f8"/>
<path class="colorcce9ff svgShape" d="M143.139 107.8c-.57.41-.92.66-.92.66v.08c-.73.03-1.57.09-2.34.19-1.73.24-5.771 2.47-6.561 3.39h-9.59c1.86-1.12 4.84-2.84 8-4.55 4.309-2.33 7.42-4.64 8.23-5.86.84-1.28 2.859-6.18 4.659-10.87-.09 1.13-.18 2.33.15 3.99C145.408 98.11 143.809 104.44 143.139 107.8zM120.339 108.26c0 .11 0 .22.019.32-.53.03-1.08.08-1.6.15-1.73.24-5.78 2.47-6.57 3.39h-1.21v-7.7h14.7C122.889 106.44 120.339 108.26 120.339 108.26zM312.089 107.99c-2.88 12.24-13.061 20.56-18.261 31.64-5.55 11.8-4.96 26.5-13.79 36.73-3.88 4.49-9.229 7.46-14.729 9.71-10.11 4.13-20.57 7.07-31.23 9.13l5.771-63.01h4.82v-6.81h-5.62c.309-.18.63-.38.95-.6 4.52-3.08 1.579-7.74 4.3-11.15 1.04-1.31 2.979-1.51 4.29-2.55 1.899-1.5 2.06-4.4 1.239-6.68-.819-2.27-2.39-4.19-3.51-6.33-1.12-2.15-1.74-4.83-.569-6.94 1.09-1.98 3.539-3.07 4.239-5.22.761-2.33-.84-4.7-2.17-6.75-1.34-2.06-2.42-4.92-.85-6.8.53-.63 1.29-1.04 1.859-1.64 2.011-2.16.73-5.63-.63-8.25 0 0-.6-1.78-2.5-1.97-1.83-.56-3.069.86-3.069.86-2.271 1.88-4.79 4.59-3.771 7.36.29.77.84 1.44 1.08 2.23.73 2.34-1.38 4.56-3.41 5.94-2.02 1.38-4.42 2.94-4.609 5.38-.181 2.26 1.649 4.21 1.89 6.46.13 1.17-.18 2.3-.76 3.33-1.05-1.13-2.141-2.23-3.11-3.44-2.01-2.49-3.51-5.79-2.55-8.84.899-2.85 3.79-4.9 4.14-7.87.38-3.22-2.319-5.86-4.58-8.18-2.26-2.32-4.42-5.74-2.859-8.59.52-.96 1.399-1.68 1.97-2.61.729-1.19.88-2.48.65-3.8 8.939 3.57 18.89 4.73 28.34 5.58C276.109 56.2 320.019 74.35 312.089 107.99z" fill="#c2a7f8"/>
<path class="color0b4870 svgShape" d="m248.59 111.08c-1.311 1.04-3.25 1.24-4.29 2.55-2.721 3.41 0.22 8.07-4.3 11.15-0.32 0.22-0.641 0.42-0.95 0.6-3.75 2.22-7.16 2.11-10.32 0-0.11-0.06-0.21-0.13-0.31-0.21-0.851-0.6-1.681-1.35-2.49-2.23-1.561-1.71-2.98-4.27-2.11-6.54 0.83-2.16 3.42-3.6 2.641-6.36-0.46-1.61-2.171-2.54-2.98-4.01-1.17-2.12-0.191-4.85 1.44-6.63 1.64-1.78 3.83-2.94 5.689-4.49 0.95-0.79 1.84-1.76 2.441-2.85 0.58-1.03 0.89-2.16 0.76-3.33-0.24-2.25-2.07-4.2-1.89-6.46 0.189-2.44 2.59-4 4.609-5.38 2.03-1.38 4.141-3.6 3.41-5.94-0.24-0.79-0.79-1.46-1.08-2.23-1.02-2.77 1.5-5.48 3.771-7.36 0 0 1.239-1.42 3.069-0.86 1.9 0.19 2.5 1.97 2.5 1.97 1.36 2.62 2.641 6.09 0.63 8.25-0.569 0.6-1.329 1.01-1.859 1.64-1.57 1.88-0.49 4.74 0.85 6.8 1.33 2.05 2.931 4.42 2.17 6.75-0.7 2.15-3.149 3.24-4.239 5.22-1.171 2.11-0.551 4.79 0.569 6.94 1.12 2.14 2.69 4.06 3.51 6.33 0.819 2.28 0.658 5.18-1.241 6.68z" fill="#080808"/>
<path class="color0e538c svgShape" d="m244.82 65.225c-0.877 2.51-1.611 5.062-2.186 7.653-0.293 1.296-0.576 2.587-0.646 3.885-0.067 1.281 0.088 2.61 0.217 3.924 0.301 2.635 0.425 5.401-0.148 8.086-0.283 1.341-0.728 2.675-1.474 3.888-0.188 0.304-0.394 0.596-0.622 0.876-0.216 0.268-0.515 0.562-0.691 0.771-0.419 0.43-0.753 0.967-1.073 1.5-1.178 2.213-1.754 4.827-1.616 7.305 0.05 0.614 0.121 1.23 0.291 1.804 0.067 0.294 0.173 0.567 0.287 0.833l0.187 0.456c0.07 0.17 0.143 0.338 0.201 0.507 0.458 1.367 0.685 2.784 0.647 4.208-0.059 1.416-0.329 2.859-1.016 4.159-0.323 0.656-0.793 1.246-1.31 1.77-0.287 0.237-0.548 0.501-0.876 0.68l-0.813 0.51c-0.938 0.643-1.401 1.873-1.515 3.135-0.139 1.269 3e-3 2.599 0.278 3.889v3e-3c0.01 0.045-0.017 0.086-0.061 0.094-0.038 0.01-0.073-0.011-0.088-0.047-0.515-1.247-0.802-2.582-0.849-3.972-0.015-0.692 0.092-1.403 0.311-2.099 0.213-0.702 0.668-1.35 1.23-1.862l0.819-0.633c0.249-0.163 0.442-0.39 0.66-0.589 0.382-0.45 0.727-0.934 0.956-1.494 0.504-1.086 0.693-2.332 0.684-3.565 0.018-1.236-0.208-2.484-0.609-3.631l-0.35-0.89c-0.141-0.349-0.262-0.699-0.338-1.056-0.188-0.71-0.255-1.426-0.299-2.135-0.039-2.837 0.684-5.587 2.091-8.017 0.379-0.594 0.772-1.188 1.295-1.701 0.267-0.285 0.452-0.451 0.663-0.692 0.201-0.229 0.387-0.474 0.554-0.734 0.684-1.036 1.136-2.248 1.44-3.496 0.296-1.254 0.457-2.55 0.497-3.853 0.052-1.3-0.04-2.614-0.134-3.943-0.074-1.331-0.186-2.663-0.062-4.039 0.134-1.358 0.475-2.665 0.822-3.949 0.679-2.58 1.519-5.118 2.497-7.595 0.016-0.039 0.062-0.06 0.104-0.044 0.041 0.016 0.058 0.06 0.045 0.1z" fill="#9c5b3f"/>
<rect class="colorffbe55 svgShape" x="182.35" y="118.39" width="19.85" height="36.57" fill="#ffbe55" opacity=".7"/>
<path class="color0b4870 svgShape" d="m212.63 110.04c-0.79 2.76 1.81 4.2 2.63 6.36 0.87 2.27-0.55 4.83-2.11 6.54-0.91 0.99-1.84 1.81-2.8 2.44-0.25 0.18-0.51 0.33-0.771 0.48-2.31 1.28-4.76 1.51-7.38 0.56v-8.03h3.34c0-0.05 0.011-0.09 0.021-0.14 0.05-0.3 0.12-0.6 0.22-0.89 0.07-0.24 0.16-0.48 0.26-0.72v-2.58h-10.949c-0.09-0.14-0.2-0.29-0.311-0.43-1.04-1.31-2.97-1.51-4.29-2.55-1.899-1.5-2.059-4.4-1.239-6.68 0.829-2.27 2.399-4.19 3.51-6.33 1.12-2.15 1.74-4.83 0.569-6.94-1.09-1.98-3.529-3.07-4.239-5.22-0.761-2.33 0.85-4.7 2.18-6.75 1.33-2.06 2.42-4.92 0.84-6.8-0.53-0.63-1.29-1.04-1.859-1.64-2-2.16-0.73-5.63 0.63-8.25 0 0 0.6-1.78 2.51-1.97 1.83-0.56 3.07 0.86 3.07 0.86 2.26 1.88 4.779 4.59 3.76 7.36-0.28 0.77-0.83 1.44-1.08 2.23-0.72 2.34 1.39 4.56 3.41 5.94s4.42 2.94 4.609 5.38c0.191 2.26-1.649 4.21-1.89 6.46-0.12 1.07 0.14 2.1 0.62 3.06 0.6 1.19 1.55 2.26 2.58 3.12 1.859 1.55 4.05 2.71 5.689 4.49 1.641 1.78 2.62 4.51 1.441 6.63-0.812 1.47-2.522 2.4-2.971 4.01z" fill="#080808"/>
<path class="color0e538c svgShape" d="m202.47 96.09c1.08 2.2 1.64 4.61 1.6 7.1-0.05 0.71-0.109 1.42-0.3 2.13-0.05 0.22-0.11 0.44-0.19 0.65-0.04 0.14-0.1 0.27-0.149 0.41l-0.351 0.89c-0.399 1.15-0.63 2.39-0.609 3.63-0.01 1.08 0.14 2.18 0.51 3.16h-1.53c-0.359-1.01-0.529-2.08-0.569-3.14-0.03-1.42 0.189-2.84 0.649-4.21 0.061-0.17 0.13-0.33 0.2-0.5l0.19-0.46c0.119-0.27 0.22-0.54 0.29-0.83 0.02-0.07 0.04-0.15 0.06-0.22 0.13-0.51 0.19-1.05 0.23-1.59 0.1-1.8-0.181-3.67-0.801-5.41-0.22-0.66-0.5-1.29-0.819-1.89-0.32-0.53-0.65-1.07-1.07-1.5-0.18-0.21-0.48-0.5-0.69-0.77-0.229-0.28-0.439-0.57-0.619-0.88-0.75-1.21-1.2-2.54-1.48-3.89-0.57-2.68-0.45-5.45-0.15-8.08 0.131-1.32 0.29-2.65 0.221-3.93-0.07-1.29-0.351-2.59-0.65-3.88-0.57-2.59-1.31-5.15-2.18-7.66-0.021-0.04 0-0.08 0.04-0.09 0.04-0.02 0.09 0 0.1 0.04 0.98 2.48 1.82 5.01 2.5 7.59 0.351 1.29 0.69 2.59 0.82 3.95 0.13 1.38 0.01 2.71-0.061 4.04-0.09 1.33-0.18 2.64-0.13 3.95 0.04 1.3 0.2 2.59 0.49 3.85 0.31 1.25 0.76 2.46 1.44 3.49 0.17 0.26 0.359 0.51 0.56 0.74 0.21 0.24 0.39 0.41 0.66 0.69 0.52 0.51 0.92 1.11 1.3 1.7 0.168 0.3 0.338 0.61 0.488 0.92z" fill="#9c5b3f"/>
<path class="colorf2f2f2 svgShape" d="m207.13 121.14c-0.021 0.67-0.101 1.32-0.23 1.96-0.14 0.69-0.35 1.37-0.62 2.01-0.01 0.04-0.05 0.06-0.09 0.05s-0.07-0.05-0.06-0.09v-0.01c0.189-0.88 0.31-1.78 0.319-2.66 0.02-0.41 0-0.82-0.04-1.22-0.08-0.95-0.359-1.87-0.89-2.55-0.07-0.08-0.14-0.16-0.22-0.24h0.239c0-0.05 0.011-0.09 0.021-0.14 0.05-0.3 0.12-0.6 0.22-0.89 0.09 0.09 0.181 0.19 0.26 0.29 0.36 0.41 0.631 0.89 0.78 1.39 0.22 0.7 0.331 1.41 0.311 2.1z" fill="#f2f2f2"/>
<path class="color2a94f4 svgShape" d="m236.73 104.26c-0.13 0.22-0.29 0.44-0.46 0.64-0.25 0.3-0.54 0.57-0.85 0.82-1.41 1.18-3.221 1.97-4.051 3.6-2.63 5.12 2.381 10.39-2.67 15.57-0.09 0.1-0.189 0.19-0.279 0.28-0.07 0.07-0.141 0.15-0.221 0.21-5.739 5.56-11.79 5.46-18.21 0.78-0.14-0.1-0.27-0.2-0.41-0.3-0.189-0.16-0.39-0.32-0.579-0.48-0.77-0.67-1.5-1.44-2.101-2.28-0.16-0.23-0.31-0.46-0.45-0.7-0.68-1.17-1.069-2.45-0.93-3.77 0-0.08 0.01-0.16 0.02-0.24 0-0.05 0.011-0.09 0.021-0.14 0.05-0.3 0.12-0.6 0.22-0.89 0.07-0.24 0.16-0.48 0.26-0.72 0.95-2.36 2.691-4.56 1.28-7.32-0.78-1.51-2.38-2.3-3.74-3.35-0.42-0.32-0.819-0.67-1.159-1.07-0.051-0.06-0.11-0.13-0.15-0.2-1.51-1.93-1.46-4.64-0.57-7 0.21-0.56 0.471-1.1 0.77-1.61 0.02-0.06 0.06-0.12 0.09-0.17 0.92-1.52 2.11-2.83 3.33-4.13 0.979-1.04 1.97-2.06 2.86-3.17 2.01-2.49 3.51-5.79 2.55-8.84-0.9-2.85-3.79-4.9-4.141-7.87-0.38-3.22 2.32-5.86 4.58-8.18 2.261-2.32 4.41-5.74 2.87-8.59-0.53-0.96-1.41-1.68-1.979-2.61-1.971-3.19 0.319-7.17 2.68-10.16 0.09-0.12 0.19-0.24 0.28-0.35 0 0 1.239-2.16 3.76-1.91 2.51-0.25 3.75 1.91 3.75 1.91 1.57 1.94 3.189 4.36 3.61 6.71 0.23 1.32 0.079 2.61-0.65 3.8-0.57 0.93-1.45 1.65-1.97 2.61-1.561 2.85 0.6 6.27 2.859 8.59 2.261 2.32 4.96 4.96 4.58 8.18-0.35 2.97-3.24 5.02-4.14 7.87-0.96 3.05 0.54 6.35 2.55 8.84 0.97 1.21 2.061 2.31 3.11 3.44 1.14 1.21 2.229 2.45 3.09 3.86 0.11 0.18 0.21 0.36 0.31 0.55 0.301 0.57 0.551 1.17 0.74 1.8 0.63 2.04 0.62 4.26-0.46 5.99z" fill="#7232ea"/>
<rect class="color0e538c svgShape" x="202.2" y="125.38" width="42.471" height="6.81" fill="#9c5b3f"/>
<polygon class="color0e538c svgShape" points="239.85 132.19 234.08 195.2 233.86 197.55 206.04 197.55 206.04 195.87 204.68 195.87 202.2 168.85 202.2 159.3 206.04 159.3 206.04 154.96 202.2 154.96 202.2 132.19" fill="#9c5b3f"/>
<path class="color0e538c svgShape" d="m217.75 124.06c-0.989-1.484 0 0-0.422-1.788-0.2-0.896-0.247-1.844-0.142-2.801 0.09-0.964 0.51-1.925 1.109-2.734l0.896-1.035c0.281-0.273 0.472-0.621 0.697-0.935 0.381-0.681 0.701-1.4 0.852-2.182 0.371-1.541 0.291-3.207-0.039-4.801-0.3-1.607-0.918-3.164-1.74-4.545l-0.684-1.063c-0.275-0.414-0.518-0.838-0.712-1.28-0.43-0.872-0.7-1.782-0.943-2.69-0.788-3.663-0.566-7.416 0.622-10.932 0.338-0.868 0.689-1.739 1.234-2.539 0.274-0.439 0.467-0.704 0.677-1.071 0.201-0.35 0.379-0.716 0.53-1.096 0.618-1.521 0.886-3.209 0.954-4.907 0.056-1.701-0.073-3.423-0.355-5.122-0.276-1.697-0.741-3.376-1.205-5.073-0.44-1.707-0.931-3.406-1.131-5.219-0.183-1.797-0.078-3.578 0.034-5.331 0.208-3.52 0.636-7.028 1.262-10.491 0.01-0.059 0.063-0.096 0.121-0.085 0.054 0.011 0.092 0.063 0.084 0.117-0.486 3.481-0.771 6.979-0.84 10.486-0.043 1.754-0.071 3.505 0.17 5.203 0.25 1.677 0.801 3.359 1.308 5.029 1.075 3.337 1.958 6.889 1.913 10.517-0.021 1.813-0.246 3.658-0.898 5.426-0.16 0.441-0.354 0.872-0.576 1.294-0.211 0.405-0.522 0.862-0.698 1.179-0.432 0.668-0.718 1.452-0.999 2.223-0.951 3.177-1.016 6.715-0.192 9.888 0.229 0.784 0.478 1.563 0.847 2.262 0.165 0.363 0.371 0.692 0.587 1.009l0.365 0.54c0.137 0.199 0.272 0.397 0.392 0.604 0.948 1.652 1.615 3.428 1.934 5.284 0.295 1.853 0.32 3.791-0.232 5.654-0.246 0.935-0.701 1.82-1.236 2.632-0.309 0.384-0.577 0.794-0.956 1.113l-0.923 0.873c-1.045 1.079-1.323 2.791-1.141 4.455 0.147 1.683 0.599-0.746 1.29 0.854l-1.814 1.078z" fill="#9c5b3f"/>
<path class="colorf1b99e svgShape" d="m124.9 111.03-3.22 0.29-1.79 0.16c-0.23-0.07-2.53 0.21-3.8 0.64-0.141 0.05-0.261 0.1-0.37 0.15-0.71 0.32-2.07 0.55-2.92 0.5-0.45-0.03-0.75-0.14-0.75-0.36 0-0.03 0-0.06 0.01-0.09 0.02-0.06 0.06-0.12 0.13-0.2 0.79-0.92 4.84-3.15 6.57-3.39 0.52-0.07 1.069-0.12 1.6-0.15 1.391-0.09 2.601-0.08 2.601-0.08l1.939 2.53z" fill="#f1b99e"/>
<path class="colorf7f7f7 svgShape" d="m150.27 68.97c0 0.01-0.02 0.12-0.05 0.31-0.05 0.37-0.15 1.03-0.29 1.87-0.141 0.88-0.32 1.96-0.521 3.11-0.109 0.63-0.229 1.29-0.35 1.94 0 0.03-0.01 0.05-0.01 0.08-0.2 1.1-0.42 2.2-0.63 3.19-0.221 1.01-0.44 1.91-0.641 2.58-0.479 1.54-1.75 5.09-3.16 8.78v0.01c-1.8 4.69-3.819 9.59-4.659 10.87-0.811 1.22-3.921 3.53-8.23 5.86-3.16 1.71-6.14 3.43-8 4.55-0.34 0.21-0.65 0.39-0.91 0.55 0 0-0.2-0.21-0.49-0.55-0.199-0.22-0.42-0.49-0.649-0.8-0.59-0.8-1.21-1.82-1.32-2.74-0.019-0.1-0.019-0.21-0.019-0.32 0 0 2.55-1.82 5.34-3.84 0.09-0.07 0.189-0.14 0.28-0.21 2.31-1.67 4.739-3.44 5.989-4.41 0.24-0.18 0.431-0.33 0.57-0.45 0.25-0.21 0.49-0.41 0.71-0.6 0.9-0.75 1.54-1.29 1.74-1.64 0.55-0.95 2.67-8.69 3.79-14.07 0.14-0.69 0.29-1.35 0.439-1.98 0.07-0.31 0.15-0.62 0.221-0.92 0.369-1.5 0.75-2.81 1.119-3.95 0.171-0.53 0.341-1.01 0.511-1.47 0.059-0.18 0.12-0.35 0.189-0.51 0.12-0.32 0.24-0.62 0.351-0.91 0.22-0.53 0.43-1 0.63-1.41 0.13-0.26 0.25-0.51 0.359-0.73 0.16-0.29 0.301-0.54 0.431-0.76 0.14-0.24 0.27-0.45 0.39-0.63 0.05-0.08 0.11-0.16 0.16-0.23 0.04-0.06 0.07-0.11 0.11-0.15 0.029-0.04 0.06-0.08 0.08-0.11 0.05-0.07 0.09-0.12 0.13-0.16 0.01-0.02 0.029-0.03 0.04-0.04 0.02-0.03 0.029-0.04 0.029-0.04 0.86-0.64 1.65-1.01 2.34-1.19 0.421-0.11 0.811-0.16 1.16-0.16 0.101 0 0.2 0 0.29 0.01 1.651 0.12 2.531 1.27 2.531 1.27z" fill="#f7f7f7"/>
<path class="color0b4870 svgShape" d="m166.96 54.8c-0.851 2.78-3.301 4.49-5.48 3.82-0.53-0.16-0.99-0.45-1.38-0.83-0.021-0.01-0.04-0.03-0.061-0.06-0.079-0.08-0.159-0.17-0.239-0.26v-0.01c-0.15-0.17-0.28-0.36-0.38-0.57-0.091-0.13-0.16-0.27-0.221-0.42-0.02-0.04-0.04-0.09-0.06-0.14-0.08-0.2-0.15-0.42-0.2-0.64-0.25-1-0.23-2.15 0.12-3.3 0.15-0.49 0.35-0.94 0.6-1.35 0.511-0.91 1.221-1.63 2.011-2.08 0.359-0.2 0.729-0.35 1.109-0.44 0.58-0.13 1.181-0.12 1.76 0.06 2.191 0.66 3.271 3.45 2.421 6.22z" fill="#080808"/>
<path class="coloreebea7 svgShape" d="m170.35 114.06h-27.67c0.22-1.01 0.42-1.95 0.6-2.78 0.01-0.04 0.021-0.08 0.021-0.12 0.08-0.38 0.16-0.73 0.229-1.05 0.141-0.67 0.26-1.22 0.34-1.61 0.07-0.31 0.11-0.51 0.131-0.6 0-0.02 0.01-0.03 0.01-0.04s0.01-0.02 0.02-0.03c0.01-0.03 0.03-0.07 0.05-0.1 0.051-0.08 0.12-0.2 0.21-0.35v-0.01c0.11-0.19 0.25-0.42 0.421-0.69 1.779-2.89 6.81-10.1 12.48-10.23 1.95-0.05 3.98 0.73 5.97 2.81 1.021 1.05 2.03 2.44 3 4.22 0.87 1.55 1.71 3.41 2.53 5.6 0.12 0.32 0.24 0.64 0.36 0.98 0.508 1.43 0.937 2.76 1.298 4z" fill="#eebea7"/>
<path class="color0e538c svgShape" d="m170.98 114.06h-28.58c0.22-1.01 0.43-1.94 0.63-2.76 0.03-0.14 0.061-0.27 0.101-0.4 0.069-0.31 0.149-0.6 0.22-0.87 0.15-0.6 0.3-1.11 0.43-1.53 0.07-0.23 0.15-0.43 0.221-0.6 0-0.02 0.01-0.03 0.01-0.04s0.01-0.02 0.02-0.03c0.01-0.03 0.03-0.07 0.05-0.1 0.051-0.12 0.12-0.24 0.21-0.35v-0.01c1.87-2.5 9.87-3.4 15.761-3.72h0.01c2.82-0.15 5.14-0.17 6.1-0.17h0.46s1.25 1.75 2.65 5.34c0.567 1.44 1.157 3.19 1.707 5.24z" fill="#9c5b3f"/>
<path class="colorffbe55 svgShape" d="m165.33 100.18c0.591 0.98 5.181 7.85 5.181 7.85-0.32 0.29-0.74 0.55-1.24 0.79-0.18 0.09-0.37 0.18-0.58 0.26-3 1.23-8.18 1.85-13.11 2-2.75 0.08-5.409 0.02-7.59-0.16-0.83-0.07-1.59-0.16-2.25-0.27-0.96-0.14-1.71-0.33-2.21-0.54-0.06-0.02-0.12-0.05-0.18-0.08-0.32-0.16-0.49-0.34-0.481-0.54 0.021-0.25 0.061-0.58 0.141-0.98 0.029-0.21 0.08-0.45 0.13-0.71 0.67-3.36 2.27-9.69 1.63-12.97-0.33-1.66-0.24-2.86-0.15-3.99v-0.01c0.131-1.55 0.261-2.97-0.739-5.28-1.721-3.97-2.551-7.36-1.721-9.62 0.38-1.04 1.48-2.9 2.65-4.62 0.67-0.98 1.37-1.91 1.979-2.63 0.351-0.41 0.671-0.75 0.95-0.98 0.08-0.08 0.16-0.15 0.23-0.2 0.16-0.11 0.29-0.18 0.399-0.2 0.101-0.02 0.221-0.05 0.351-0.09 0.16-0.04 0.35-0.1 0.55-0.17 0.3-0.1 0.64-0.21 0.99-0.34 0.45-0.17 0.93-0.35 1.38-0.52 0 0 0.01-0.01 0.04-0.02 0.28-0.11 0.559-0.22 0.8-0.32 0.74-0.29 1.27-0.51 1.27-0.51 1.76-0.26 4.1-0.22 5.6-0.01 0.15 0.02 0.29 0.05 0.439 0.07 0.271 0.05 0.5 0.1 0.681 0.16 0.01 0 0.02 0 0.03 0.01 0.079 0.01 0.159 0.03 0.239 0.06 0.11 0.02 0.221 0.05 0.33 0.08 1.61 0.34 5.42 0.86 7.83 1.93 0.5 0.23 0.94 0.47 1.29 0.74 2.66 2.07-0.29 11.04-0.29 11.04s-3.59 11.69-4.13 13.06c-0.11 0.27-0.21 0.69-0.31 1.21-0.379 2.1-0.598 5.71-0.129 6.5z" fill="#ffbe55"/>
<path class="coloreebea7 svgShape" d="m160.47 65.55c-4.181 7.98-7.851 4.3-7.851 4.3 0.061-0.86-0.019-2.44-0.14-4.01 0-0.04 0-0.08-0.01-0.12-0.01-0.19-0.03-0.39-0.04-0.58-0.05-0.62-0.11-1.23-0.16-1.78-0.12-1.22-0.21-2.11-0.21-2.11s4.99-4.26 7.14-4.78c0.011 0 0.02 0 0.03-0.01 0.16-0.04 0.3-0.05 0.42-0.03 0.46 0.02 0.65 0.4 0.39 1.3 0 0.01 0 0.03-0.01 0.05-0.02 0.07-0.04 0.14-0.05 0.2v0.01c-1.209 4.37 0.491 7.56 0.491 7.56z" fill="#eebea7"/>
<path class="coloreebea7 svgShape" d="m161.67 48.96c-0.051 2.37-0.83 5.06-2.021 7.47-0.06 0.14-0.13 0.27-0.189 0.39-0.02 0.03-0.03 0.05-0.04 0.07-0.45 0.86-0.95 1.67-1.48 2.41-0.09 0.12-0.18 0.24-0.27 0.35-1.19 1.59-2.561 2.82-3.94 3.37-0.05 0.02-0.11 0.05-0.16 0.07-0.109 0.05-0.22 0.08-0.319 0.11-0.32 0.09-0.65 0.15-0.961 0.16h-0.02c-2 0.09-3.91-1.49-5.23-5.68-1.189-3.79-1.479-6.76-1.26-9.07 0.601-6.33 5.03-7.72 5.03-7.72s9.59-2.17 10.77 6.49c0.07 0.5 0.1 1.03 0.09 1.58z" fill="#eebea7"/>
<path class="color0b4870 svgShape" d="m162.78 48.52c0.05 4.13-2.149 8.32-2.68 9.27-0.08 0.13-0.12 0.2-0.12 0.2v-0.01c-0.03-0.15-0.09-0.32-0.18-0.51v-0.01c-0.09-0.2-0.21-0.42-0.34-0.64-0.08-0.12-0.15-0.24-0.23-0.36-0.03-0.05-0.06-0.09-0.09-0.13-0.11-0.16-0.22-0.33-0.33-0.49-0.68-0.97-1.44-1.88-1.62-2.1-0.04-0.03-0.05-0.05-0.05-0.05-6.84-0.5-10.94-4.51-10.94-4.51-0.18-0.16-0.31-0.36-0.42-0.57-1.56-3.24 4.29-11.94 12.79-7.28 3.16 1.73 4.18 4.44 4.21 7.19z" fill="#080808"/>
<path class="coloreebea7 svgShape" d="m157.19 53.61c0.056-1.032 0.692-3.386 2.227-2.729 1.538 0.66-0.093 5.453-1.115 5.158-1e-3 1e-3 -1.235 0.019-1.112-2.429z" fill="#eebea7"/>
<path class="colora77860 svgShape" d="m157.94 59.3c-0.01 0.05-0.2 0.92-0.98 2.08s-2.15 2.59-4.53 3.76c-0.05-0.62-0.11-1.23-0.16-1.78h0.02c0.08 0.01 0.421 0.02 0.961-0.16 0.1-0.03 0.21-0.06 0.319-0.11 0.05-0.02 0.11-0.05 0.16-0.07 0.94-0.42 2.3-1.35 3.94-3.37 0.09-0.11 0.18-0.23 0.27-0.35z" fill="#a77860"/>
<path class="colorf7f7f7 svgShape" d="m161.07 65.7-9.01 11.41-0.42-10.93s0.01-0.01 0.04-0.02c0.09-0.08 0.35-0.25 0.79-0.44 1.1-0.47 3.319-1.06 6.88-0.4 0.15 0.02 0.29 0.05 0.439 0.07 0.221 0.05 0.45 0.1 0.681 0.16 0.01 0 0.02 0 0.03 0.01 0.079 0.01 0.159 0.03 0.239 0.06 0.111 0.02 0.221 0.05 0.331 0.08z" fill="#f7f7f7"/>
<path class="colorffbe55 svgShape" d="m206.04 114.06v2.58c-0.1 0.24-0.189 0.48-0.26 0.72-0.1 0.29-0.17 0.59-0.22 0.89-0.01 0.05-0.021 0.09-0.021 0.14h-23.189v-4.33h23.69z" fill="#ffbe55" opacity=".9"/>
<path class="color0e538c svgShape" d="m206.04 116.64v1.75h-0.5c0-0.05 0.011-0.09 0.021-0.14 0.05-0.3 0.12-0.6 0.22-0.89 0.07-0.24 0.16-0.48 0.259-0.72z" fill="#9c5b3f"/>
<rect class="colorffbe55 svgShape" x="62.738" y="114.06" width="119.61" height="4.33" fill="#ffbe55"/>
<polygon class="colorf2f2f2 svgShape" points="134.39 103.25 133.14 104.42 125.96 104.21 110.98 103.79 109.3 103.74 109.06 103.73 104.4 103.6 92.219 103.25 83.939 77.12 85.189 75.95 127.37 75.95 133.23 98.75" fill="#f2f2f2"/>
<polygon class="colord3d3d3 svgShape" points="133.14 104.42 90.959 104.42 87.229 89.92 83.939 77.12 126.11 77.12 131.95 99.8" fill="#d3d3d3"/>
<rect class="colorf2f2f2 svgShape" x="109.06" y="97.33" width="1.92" height="14.79" fill="#f2f2f2"/>
<path class="colorf7f7f7 svgShape" d="m118.13 114.06h-6.08v-1.94h4.149c1.071 0 1.931 0.87 1.931 1.94z" fill="#f7f7f7"/>
<rect class="colorf7f7f7 svgShape" x="104.4" y="97.33" width="4.9" height="14.79" fill="#f7f7f7"/>
<path class="colord3d3d3 svgShape" d="m112.8 112.12v1.94h-15.55c0-0.54 0.21-1.02 0.56-1.37s0.83-0.57 1.37-0.57h13.62z" fill="#d3d3d3"/>
<path class="colorffbe55 svgShape" d="m65.589 118.39v36.57h116.76v-36.57h-116.76zm100.72 25.58h-88.19v-15.28h88.19v15.28z" fill="#ffbe55" opacity=".5"/>
<rect class="colorffbe55 svgShape" x="182.35" y="154.96" width="23.689" height="4.34" fill="#ffbe55" opacity=".9"/>
<rect class="colorffbe55 svgShape" x="62.738" y="154.96" width="119.61" height="4.34" fill="#ffbe55"/>
<rect class="colorffbe55 svgShape" x="65.589" y="159.3" width="116.76" height="36.569" fill="#ffbe55" opacity=".5"/>
<rect class="colorffbe55 svgShape" x="182.35" y="195.87" width="23.689" height="4.341" fill="#ffbe55" opacity=".9"/>
<rect class="colorffbe55 svgShape" x="182.35" y="159.3" width="19.85" height="36.569" fill="#ffbe55" opacity=".7"/>
<rect class="colorffbe55 svgShape" x="62.738" y="195.87" width="119.61" height="4.341" fill="#ffbe55"/>
<path class="colorf1b99e svgShape" d="m146.03 111.03-2.649 0.24-0.101 0.01-0.25 0.02-2.02 0.18c-0.23-0.07-2.53 0.21-3.8 0.64-0.141 0.05-0.261 0.1-0.37 0.15-1.12 0.51-3.9 0.8-3.65 0.05 0.02-0.06 0.061-0.12 0.13-0.2 0.79-0.92 4.83-3.15 6.561-3.39 0.77-0.1 1.609-0.16 2.34-0.19 0.28-0.01 0.55-0.02 0.79-0.03 0.319-0.01 0.58-0.01 0.77-0.01h0.09 0.21l1.66 2.15 0.289 0.38z" fill="#f1b99e"/>
<g class="color000 svgShape">
<path class="colorf7f7f7 svgShape" d="m172.15 69.17c0 0.02-0.02 0.13-0.05 0.31-0.15 0.96-0.61 3.95-1.16 6.92-0.41 2.26-0.88 4.51-1.29 5.85-0.58 1.91-2.399 6.91-4.189 11.43-0.811 2.08-1.62 4.05-2.301 5.58-0.559 1.25-1.02 2.19-1.33 2.66-0.29 0.45-0.899 1.05-1.77 1.73h-0.01c-0.16 0.13-0.32 0.26-0.5 0.39-1.471 1.12-3.511 2.42-5.941 3.73-2.03 1.1-3.99 2.2-5.62 3.15-0.76 0.44-1.45 0.84-2.04 1.2-0.489 0.29-0.91 0.54-1.26 0.76 0 0-0.29-0.3-0.66-0.76-0.21-0.24-0.43-0.53-0.649-0.85-0.03-0.03-0.051-0.07-0.08-0.11-0.061-0.08-0.12-0.17-0.17-0.26-0.48-0.75-0.9-1.61-0.91-2.36v-0.08s0.35-0.25 0.92-0.66c0.42-0.3 0.96-0.68 1.57-1.12 3.18-2.28 8.42-6.07 9.689-7.13 1.271-1.07 2.2-1.81 2.45-2.24 0.08-0.14 0.2-0.44 0.34-0.86 0.58-1.67 1.58-5.29 2.46-8.89 0.36-1.49 0.71-2.98 0.99-4.32 2.3-11.06 5.189-14 5.189-14 1.23-0.89 2.24-1.4 3.07-1.61 0.36-0.11 0.69-0.15 0.98-0.15 1.292 0 1.982 0.83 2.272 1.69z" fill="#f7f7f7"/>
</g>
<path class="color0e538c svgShape" d="m152.07 77.26-1.49-5.97c-0.21-0.02-0.43-0.07-0.649-0.14-1.07-0.35-2.26-1.22-3.141-2.47-0.18-0.26-0.35-0.54-0.5-0.83-0.149-0.29-0.289-0.61-0.399-0.93 0.78 0.17 1.42 0.46 2.08 0.58 0.97 0.19 2.01 0.04 3.67-1.32l0.42 10.93v0.01l9e-3 0.14z" clip-rule="evenodd" fill="#9c5b3f" fill-rule="evenodd"/>
<path class="color0e538c svgShape" d="m152.06 77.118 9.014-11.416c0.802 4.396 2.641 2.364 4.617 3.335-2.493 1.972-6.574 3.972-8.131 2.961l-5.5 5.12z" clip-rule="evenodd" fill="#9c5b3f" fill-rule="evenodd"/>
<rect class="colorf7f7f7 svgShape" transform="rotate(-83.529 145.98 77.568)" x="144.36" y="74.155" width="3.24" height="6.821" fill="#f7f7f7"/>
<rect class="colorffbe55 svgShape" x="78.118" y="128.69" width="88.19" height="15.28" fill="#ffbe55"/>
<rect class="colorf7f7f7 svgShape" x="116.2" y="112.12" width="36.07" height="1.94" fill="#f7f7f7"/>
</svg>
</g>
</svg>
